<svg width="399" height="214" viewBox="0 0 399 214" fill="none" xmlns="http://www.w3.org/2000/svg">
<path d="M139.407 78.5331C139.407 79.0561 139.183 79.467 138.734 79.7659C138.062 80.2142 136.904 80.8493 135.26 81.6712C133.616 82.4931 131.785 83.3524 129.768 84.249C127.825 85.1457 125.77 86.0796 123.603 87.051C121.436 88.0223 119.456 88.8816 117.663 89.6288C115.87 90.376 114.338 90.9737 113.067 91.422C111.872 91.945 111.237 92.2066 111.162 92.2066C110.564 92.2066 109.892 91.5341 109.145 90.1892C108.472 88.8442 107.8 87.051 107.127 84.8094C106.455 82.4931 105.819 79.8406 105.222 76.8519C104.624 73.7884 104.064 70.5755 103.54 67.2132C103.092 63.8508 102.719 60.4511 102.42 57.0141C102.195 53.5023 102.083 50.14 102.083 46.9271C102.083 42.1451 102.308 38.4092 102.756 35.7194C103.279 33.0296 103.839 31.0122 104.437 29.6672C105.11 28.3223 105.707 27.5004 106.23 27.2015C106.753 26.8279 107.052 26.6411 107.127 26.6411C107.725 26.6411 108.211 26.9026 108.584 27.4257C108.958 27.9487 109.145 28.4717 109.145 28.9948C109.145 29.2936 108.995 29.8167 108.696 30.5638C108.397 31.311 108.061 32.3571 107.688 33.702C107.389 35.047 107.09 36.7653 106.791 38.8575C106.567 40.9496 106.455 43.49 106.455 46.4788C106.455 49.1686 106.567 51.9706 106.791 54.8846C107.09 57.7986 107.463 60.6753 107.912 63.5146C108.36 66.3539 108.846 69.0438 109.369 71.5842C109.967 74.1247 110.564 76.3662 111.162 78.3089C111.76 80.2516 112.32 81.8207 112.843 83.0162C113.366 84.137 113.852 84.6973 114.3 84.6973C114.375 84.6973 114.861 84.5105 115.757 84.137C116.654 83.7634 117.775 83.315 119.12 82.792C120.465 82.1943 121.922 81.6339 123.491 81.1109C125.135 80.5131 126.779 79.9901 128.423 79.5418C129.17 79.3176 130.029 79.0934 131.001 78.8693C132.047 78.5704 133.018 78.3089 133.915 78.0847C134.812 77.8606 135.596 77.6738 136.269 77.5244C137.016 77.3749 137.464 77.3002 137.614 77.3002C138.809 77.3002 139.407 77.7112 139.407 78.5331ZM176.594 75.2828C176.669 75.4322 176.707 75.6564 176.707 75.9553C176.707 76.4036 176.37 77.076 175.698 77.9727C175.474 78.2715 174.988 78.7572 174.241 79.4297C173.493 80.1021 172.485 80.7746 171.214 81.4471C169.944 82.1195 168.375 82.7173 166.507 83.2403C164.714 83.7634 162.584 84.0249 160.118 84.0249C158.4 84.0249 156.718 83.6513 155.075 82.9041C153.431 82.0822 151.974 80.924 150.703 79.4297C149.433 77.8606 148.387 75.9553 147.565 73.7137C146.743 71.3974 146.332 68.7076 146.332 65.6441C146.332 62.7301 146.706 60.0028 147.453 57.4624C148.2 54.922 149.134 52.6804 150.255 50.7377C151.451 48.795 152.758 47.2633 154.178 46.1425C155.598 45.0218 156.98 44.4614 158.325 44.4614C159.521 44.4614 160.716 44.7229 161.912 45.2459C163.182 45.6942 164.303 46.292 165.274 47.0392C166.32 47.7863 167.142 48.6456 167.74 49.6169C168.338 50.5136 168.637 51.4475 168.637 52.4189C168.637 53.5397 168.114 54.6978 167.067 55.8933C166.096 57.0888 164.9 58.2096 163.481 59.2556C162.061 60.227 160.641 61.0489 159.222 61.7214C157.802 62.3191 156.681 62.618 155.859 62.618C155.411 62.618 155 62.4312 154.626 62.0576C154.327 61.6093 154.178 61.0863 154.178 60.4885C154.178 59.4424 154.626 58.6205 155.523 58.0228C156.494 57.425 157.54 56.902 158.661 56.4537C159.782 55.9307 160.791 55.3329 161.687 54.6605C162.659 53.988 163.145 53.054 163.145 51.8585C163.145 51.7091 162.958 51.3355 162.584 50.7377C162.211 50.14 161.202 49.8411 159.558 49.8411C158.811 49.8411 157.951 50.2894 156.98 51.186C156.009 52.0079 155.075 53.1661 154.178 54.6605C153.281 56.0801 152.534 57.7986 151.936 59.816C151.338 61.7587 151.04 63.8882 151.04 66.2045C151.04 68.1472 151.376 69.9031 152.048 71.4721C152.796 73.0412 153.73 74.3862 154.85 75.507C155.971 76.553 157.279 77.3749 158.773 77.9727C160.268 78.5704 161.8 78.8693 163.369 78.8693C164.49 78.8693 165.685 78.6451 166.955 78.1968C168.3 77.6738 169.533 77.1508 170.654 76.6277C171.85 76.03 172.858 75.507 173.68 75.0586C174.577 74.5356 175.137 74.2741 175.362 74.2741C175.586 74.2741 175.81 74.3862 176.034 74.6103C176.333 74.8345 176.52 75.0586 176.594 75.2828ZM209.73 72.2567C209.73 73.5269 209.282 74.6477 208.385 75.619C207.563 76.5157 206.48 77.3002 205.135 77.9727C203.864 78.5704 202.445 79.0561 200.875 79.4297C199.306 79.8033 197.812 80.1021 196.392 80.3263C194.972 80.4757 193.702 80.5878 192.581 80.6625C191.535 80.6625 190.863 80.6625 190.564 80.6625C188.92 80.6625 187.65 80.401 186.753 79.878C185.856 79.355 185.408 78.421 185.408 77.076C185.408 76.6277 185.445 76.2541 185.52 75.9553C185.595 75.5817 185.894 75.3949 186.417 75.3949C186.641 75.3949 187.015 75.4696 187.538 75.619C188.061 75.6937 188.472 75.7311 188.77 75.7311C189.069 75.7311 190.003 75.6937 191.573 75.619C193.216 75.4696 194.935 75.2454 196.728 74.9466C198.596 74.6477 200.24 74.2367 201.66 73.7137C203.154 73.116 203.902 72.3688 203.902 71.4721C203.902 71.3227 203.117 70.8744 201.548 70.1272C200.053 69.3053 197.774 67.9604 194.711 66.0924C192.32 64.598 190.639 63.1037 189.667 61.6093C188.696 60.0402 188.21 57.9481 188.21 55.3329C188.21 53.6891 188.546 52.3442 189.219 51.2981C189.966 50.2521 190.937 49.4302 192.133 48.8324C193.403 48.2347 194.823 47.8237 196.392 47.5995C198.036 47.3007 199.755 47.1512 201.548 47.1512C201.697 47.1512 202.146 47.226 202.893 47.3754C203.715 47.5248 204.574 47.7863 205.471 48.1599C206.367 48.4588 207.152 48.8698 207.825 49.3928C208.572 49.8411 208.945 50.3641 208.945 50.9619C208.945 51.1113 208.796 51.3355 208.497 51.6343C208.273 51.9332 207.862 52.4936 207.264 53.3155C207.04 53.2408 206.629 53.1287 206.031 52.9793C205.508 52.8298 204.873 52.6804 204.126 52.531C203.453 52.3068 202.743 52.1574 201.996 52.0827C201.249 51.9332 200.651 51.8585 200.203 51.8585C198.26 51.8585 196.691 52.2321 195.495 52.9793C194.3 53.6518 193.702 54.9967 193.702 57.0141C193.702 57.9854 194.076 58.8821 194.823 59.704C195.645 60.5259 196.654 61.3104 197.849 62.0576C199.045 62.7301 200.315 63.4399 201.66 64.1871C203.08 64.8595 204.387 65.6067 205.583 66.4286C206.778 67.2505 207.75 68.1472 208.497 69.1185C209.319 70.0151 209.73 71.0612 209.73 72.2567Z" fill="white"/>
<path d="M300.75 67.3658C300.75 68.7107 300.115 70.3919 298.845 72.4093C297.649 74.352 296.005 76.2573 293.913 78.1253C291.821 79.9932 289.392 81.5997 286.628 82.9446C283.863 84.2148 280.986 84.8499 277.997 84.8499C276.652 84.8499 275.232 84.6258 273.738 84.1775C272.244 83.7292 270.786 83.0941 269.367 82.2721C267.947 81.3755 266.677 80.3295 265.556 79.134C264.435 77.8637 263.613 76.4441 263.09 74.875C262.642 75.3233 262.081 76.0705 261.409 77.1166C260.811 78.1626 260.139 79.246 259.391 80.3668C258.644 81.4129 257.822 82.3469 256.926 83.1688C256.029 83.916 255.095 84.2895 254.124 84.2895C253.152 84.2895 252.33 83.8039 251.658 82.8325C251.06 81.7865 250.574 80.6657 250.201 79.4702C249.827 78.2 249.565 77.0045 249.416 75.8837C249.267 74.7629 249.192 74.1278 249.192 73.9784C249.192 73.0818 249.453 71.4006 249.976 68.9349C250.5 66.3944 251.284 63.7793 252.33 61.0894C253.376 58.3995 254.684 56.0085 256.253 53.9164C257.897 51.8243 259.802 50.7782 261.969 50.7782C262.791 50.7782 263.314 51.1518 263.538 51.899C263.837 52.5715 263.987 53.2439 263.987 53.9164V57.2788C264.36 57.5776 264.734 57.8018 265.108 57.9512C265.556 58.0259 265.93 58.1754 266.228 58.3995C266.602 58.549 266.864 58.8105 267.013 59.1841C267.237 59.5577 267.349 60.1554 267.349 60.9773C267.349 61.5004 267.312 61.986 267.237 62.4343C267.162 62.8079 267.125 63.1815 267.125 63.5551C267.125 65.4978 267.275 67.4031 267.573 69.2711C267.872 71.1391 268.47 72.8202 269.367 74.3146C270.263 75.7343 271.496 76.9298 273.066 77.9011C274.635 78.7977 276.727 79.246 279.342 79.246C282.63 79.246 285.395 78.5736 287.636 77.2286C289.953 75.809 291.858 74.2772 293.352 72.6334C294.922 70.9149 296.155 69.3832 297.051 68.0382C297.948 66.6186 298.695 65.9088 299.293 65.9088C300.264 65.9088 300.75 66.3944 300.75 67.3658ZM261.409 62.4343C261.409 62.1355 261.334 61.874 261.185 61.6498C261.035 61.3509 260.961 61.0894 260.961 60.8652C260.961 60.5664 261.035 60.3049 261.185 60.0807C261.334 59.8565 261.409 59.5577 261.409 59.1841C261.409 58.9599 261.334 58.8105 261.185 58.7358C261.035 58.5863 260.961 58.4369 260.961 58.2875C260.288 58.4369 259.578 59.072 258.831 60.1928C258.159 61.3136 257.486 62.6211 256.814 64.1155C256.216 65.6099 255.73 67.1416 255.356 68.7107C254.983 70.2051 254.796 71.4379 254.796 72.4093C254.796 72.9323 254.945 73.7916 255.244 74.9871C255.543 76.1826 255.88 76.9671 256.253 77.3407C257.523 74.7256 258.682 72.1851 259.728 69.7194C260.849 67.2537 261.409 64.8253 261.409 62.4343ZM335.753 76.8924C335.753 77.3407 335.604 77.789 335.305 78.2373C335.006 78.6856 334.633 79.0966 334.184 79.4702C333.811 79.8438 333.363 80.18 332.84 80.4789C332.391 80.7031 331.98 80.8151 331.607 80.8151C330.337 80.8151 328.693 80.5536 326.675 80.0306C324.732 79.4328 323.163 78.5362 321.968 77.3407C320.697 76.0705 319.577 74.5761 318.605 72.8576C317.634 71.0643 316.55 68.4492 315.355 65.0121C314.533 68.2998 313.561 71.55 312.441 74.7629C311.395 77.9758 309.676 80.9272 307.285 83.6171C307.135 83.7665 306.911 83.8412 306.612 83.8412C306.089 83.8412 305.529 83.5797 304.931 83.0567C304.333 82.5337 304.034 82.0106 304.034 81.4876C304.034 80.9646 303.96 79.7691 303.81 77.9011C303.736 75.9584 303.623 73.8289 303.474 71.5127C303.325 69.1217 303.175 66.7307 303.026 64.3397C302.951 61.874 302.914 59.8565 302.914 58.2875C302.914 57.5403 302.951 56.5689 303.026 55.3734C303.1 54.1032 303.325 53.0198 303.698 52.1232C303.773 51.9737 304.034 51.6749 304.483 51.2265C305.006 50.7782 305.566 50.5541 306.164 50.5541C306.687 50.5541 306.986 50.8903 307.061 51.5628C307.135 52.2352 307.173 52.9824 307.173 53.8043V71.5127C307.173 71.8863 307.21 72.4093 307.285 73.0818C307.434 73.7542 307.621 74.2399 307.845 74.5388C308.667 72.7455 309.414 70.6534 310.087 68.2624C310.834 65.7967 311.544 63.4804 312.216 61.3136C312.889 59.072 313.561 57.204 314.234 55.7097C314.906 54.1406 315.579 53.356 316.251 53.356C316.999 53.356 317.596 53.5055 318.045 53.8043C318.493 54.1032 318.867 54.701 319.166 55.5976C319.539 57.7644 319.838 59.7071 320.062 61.4256C320.286 63.0695 320.548 64.5638 320.847 65.9088C321.22 67.2537 321.706 68.5239 322.304 69.7194C322.976 70.8402 323.873 71.8863 324.994 72.8576C326.04 73.8289 327.198 74.5388 328.468 74.9871C329.813 75.4354 330.972 75.6595 331.943 75.6595C332.391 75.6595 332.877 75.5848 333.4 75.4354C333.923 75.2112 334.296 75.0992 334.521 75.0992C334.819 75.0992 335.081 75.3607 335.305 75.8837C335.604 76.4067 335.753 76.743 335.753 76.8924Z" fill="white"/>
<path d="M243.498 56.0066C243.498 56.6166 243.221 57.0878 242.667 57.4204C242.168 57.753 241.752 57.9191 241.42 57.9191C240.921 57.9191 240.532 57.8361 240.255 57.67C240.034 57.5035 239.756 57.3094 239.424 57.0878C239.146 56.8658 238.758 56.6721 238.26 56.5056C237.816 56.3395 237.151 56.2561 236.264 56.2561C235.155 56.2561 234.157 56.5332 233.27 57.0878C232.439 57.642 231.635 58.2517 230.859 58.9173C230.138 59.527 229.417 60.1092 228.696 60.6634C227.976 61.2176 227.227 61.4947 226.451 61.4947C225.509 61.4947 224.899 61.1621 224.622 60.4969C224.344 59.8317 224.206 58.9724 224.206 57.9191C224.206 57.6975 224.566 56.8937 225.287 55.5078C226.008 54.0664 226.839 52.4864 227.782 50.7679C228.78 49.0494 229.722 47.4143 230.609 45.8619C231.496 44.2543 232.106 43.1455 232.439 42.5358C232.771 41.9261 233.242 41.0668 233.852 39.958C234.462 38.8492 235.072 37.7404 235.682 36.6316C236.347 35.4676 236.901 34.4697 237.345 33.6382C237.788 32.7512 238.01 32.2246 238.01 32.0583C238.01 31.6702 237.927 31.4207 237.76 31.3099C237.594 31.199 237.428 31.1436 237.262 31.1436C236.874 31.1436 236.014 31.3653 234.684 31.8088C233.409 32.2523 232.023 32.7235 230.526 33.2224C229.084 33.7214 227.698 34.1926 226.368 34.636C225.093 35.0795 224.289 35.3013 223.957 35.3013C223.901 35.3013 223.735 35.1627 223.457 34.8855C223.346 34.7192 223.236 34.5529 223.125 34.3866C223.069 34.2203 223.042 34.054 223.042 33.8877C223.042 33.6659 223.679 33.1947 224.954 32.474C226.285 31.7534 227.865 31.0327 229.694 30.312C231.524 29.5359 233.381 28.8707 235.266 28.3163C237.206 27.7065 238.786 27.4016 240.006 27.4016C240.727 27.4016 241.364 27.6234 241.918 28.0669C242.473 28.5103 242.75 29.1201 242.75 29.8962C242.75 30.7278 242.445 31.8642 241.835 33.3056C241.226 34.7469 240.449 36.3269 239.507 38.0454C238.564 39.764 237.539 41.538 236.43 43.3671C235.377 45.1967 234.379 46.8876 233.436 48.4397C232.494 49.9366 231.69 51.2391 231.025 52.3479C230.359 53.4012 229.999 54.0664 229.944 54.3435C230.332 54.1219 230.831 53.9279 231.441 53.7617C232.05 53.5398 232.66 53.3457 233.27 53.1796C233.935 53.0131 234.545 52.8745 235.1 52.7635C235.709 52.6529 236.18 52.5974 236.513 52.5974C236.957 52.5974 237.566 52.6529 238.343 52.7635C239.119 52.8745 239.895 53.0686 240.671 53.3457C241.447 53.5677 242.113 53.9003 242.667 54.3435C243.221 54.7871 243.498 55.3413 243.498 56.0066Z" fill="white"/>
<path d="M83.3888 122.401C83.3888 124.933 83.1991 127.339 82.819 129.618C82.5658 131.898 81.8694 134.24 80.7297 136.646C79.7166 138.926 78.2602 141.395 76.3606 144.054C74.461 146.713 71.9919 149.753 68.9527 153.171C65.28 157.224 60.9745 160.833 56.0359 163.998C51.097 167.164 45.5887 168.747 39.5101 168.747C35.711 168.747 31.9119 168.114 28.1129 166.848C24.4405 165.581 21.148 163.682 18.2354 161.149C15.4494 158.616 13.17 155.451 11.3971 151.652C9.62426 147.853 8.73779 143.421 8.73779 138.356C8.73779 130.252 10.2574 121.768 13.2967 112.904C16.3359 103.913 20.5782 94.2888 26.0235 84.0321C29.5692 77.3208 32.8617 71.4325 35.901 66.3673C38.9402 61.1754 41.9161 56.87 44.8288 53.4511C47.7415 49.9052 50.6538 47.2462 53.5665 45.4732C56.4792 43.7007 59.5816 42.8142 62.8741 42.8142C65.4066 42.8142 67.5594 43.3206 69.3324 44.3336C71.232 45.2201 72.1817 47.0561 72.1817 49.8421C72.1817 50.7286 71.9919 51.5516 71.6118 52.3115C71.232 52.9444 70.6622 53.261 69.9023 53.261C68.8892 53.261 68.1296 53.0079 67.6229 52.5012C67.2431 51.8682 66.04 51.5516 64.0138 51.5516C60.5947 51.5516 57.2387 53.1345 53.9463 56.3002C50.6538 59.4659 47.5514 63.138 44.6387 67.3168C41.8529 71.3691 39.3835 75.4213 37.2307 79.4735C35.2044 83.5253 33.7482 86.5014 32.8617 88.4006C31.3421 91.5663 29.6325 95.3019 27.733 99.6073C25.9601 103.913 24.2505 108.345 22.6043 112.904C20.958 117.462 19.5651 121.894 18.4254 126.199C17.2856 130.378 16.7158 133.861 16.7158 136.646C16.7158 140.192 17.2856 143.358 18.4254 146.144C19.6917 148.803 21.338 151.082 23.3641 152.982C25.3903 154.881 27.733 156.337 30.3923 157.35C33.1783 158.237 36.0909 158.68 39.1299 158.68C43.3089 158.68 47.5514 157.667 51.857 155.641C56.2891 153.615 60.2149 150.956 63.634 147.663C67.1796 144.371 70.0289 140.572 72.1817 136.267C74.461 131.961 75.6007 127.592 75.6007 123.16C75.6007 118.728 74.461 115.056 72.1817 112.144C69.9023 109.231 67.3697 107.775 64.5836 107.775C62.811 107.775 61.5443 108.091 60.7848 108.725C60.1514 109.231 59.5181 109.928 58.8852 110.814C57.9987 112.207 57.1756 113.347 56.4157 114.233C55.6558 115.119 54.3264 115.879 52.4268 116.513C49.3875 117.526 46.9815 118.285 45.2085 118.792C43.5625 119.172 42.3593 119.488 41.5994 119.741L40.0799 120.121C39.32 120.121 38.2438 119.615 36.8506 118.602C35.5844 117.462 34.9512 116.576 34.9512 115.943C34.9512 113.663 36.2807 111.51 38.9402 109.485C41.726 107.332 44.8288 105.432 48.2478 103.786C51.6669 102.013 54.9594 100.62 58.1253 99.6073C61.2911 98.5942 63.2538 98.0879 64.0138 98.0879C67.813 98.0879 70.9154 98.8478 73.3213 100.367C75.8543 101.887 77.817 103.85 79.2099 106.255C80.7297 108.661 81.8059 111.321 82.4392 114.233C83.0722 117.019 83.3888 119.741 83.3888 122.401ZM149.63 146.903C149.757 147.157 149.82 147.536 149.82 148.043C149.82 148.803 149.25 149.943 148.111 151.462C147.731 151.969 146.907 152.792 145.641 153.931C144.375 155.071 142.665 156.211 140.513 157.35C138.36 158.49 135.7 159.503 132.534 160.389C129.495 161.276 125.886 161.719 121.707 161.719C118.795 161.719 115.945 161.086 113.159 159.82C110.374 158.427 107.904 156.464 105.751 153.931C103.599 151.272 101.826 148.043 100.433 144.244C99.0398 140.319 98.3434 135.76 98.3434 130.568C98.3434 125.63 98.9763 121.008 100.243 116.702C101.509 112.397 103.092 108.598 104.991 105.306C107.018 102.013 109.234 99.4176 111.64 97.518C114.046 95.6185 116.389 94.6689 118.668 94.6689C120.694 94.6689 122.72 95.1122 124.747 95.9983C126.899 96.7582 128.799 97.7712 130.445 99.0374C132.218 100.304 133.611 101.76 134.624 103.406C135.637 104.926 136.144 106.509 136.144 108.155C136.144 110.054 135.257 112.017 133.484 114.043C131.838 116.069 129.812 117.968 127.406 119.741C125 121.388 122.594 122.781 120.188 123.92C117.782 124.933 115.882 125.44 114.489 125.44C113.729 125.44 113.033 125.123 112.4 124.49C111.893 123.73 111.64 122.844 111.64 121.831C111.64 120.058 112.4 118.665 113.919 117.652C115.566 116.639 117.338 115.753 119.238 114.993C121.138 114.106 122.847 113.093 124.366 111.954C126.013 110.814 126.836 109.231 126.836 107.205C126.836 106.952 126.519 106.319 125.886 105.306C125.253 104.293 123.543 103.786 120.757 103.786C119.491 103.786 118.035 104.546 116.389 106.065C114.742 107.459 113.159 109.421 111.64 111.954C110.12 114.36 108.854 117.272 107.841 120.691C106.828 123.984 106.321 127.592 106.321 131.518C106.321 134.81 106.891 137.786 108.031 140.445C109.297 143.104 110.88 145.384 112.78 147.283C114.679 149.056 116.895 150.449 119.428 151.462C121.961 152.475 124.557 152.982 127.216 152.982C129.115 152.982 131.142 152.602 133.294 151.842C135.574 150.956 137.663 150.069 139.563 149.183C141.589 148.17 143.298 147.283 144.692 146.524C146.211 145.637 147.161 145.194 147.541 145.194C147.921 145.194 148.301 145.384 148.68 145.764C149.187 146.144 149.504 146.524 149.63 146.903ZM220.033 143.485C220.033 144.244 219.779 145.004 219.273 145.764C218.766 146.524 218.133 147.22 217.373 147.853C216.74 148.486 215.98 149.056 215.094 149.562C214.334 149.943 213.638 150.132 213.004 150.132C210.852 150.132 208.066 149.689 204.646 148.803C201.354 147.79 198.695 146.27 196.669 144.244C194.516 142.091 192.616 139.559 190.97 136.646C189.324 133.608 187.488 129.175 185.461 123.35C184.069 128.922 182.422 134.431 180.522 139.876C178.75 145.321 175.837 150.322 171.785 154.881C171.532 155.134 171.152 155.261 170.645 155.261C169.759 155.261 168.809 154.818 167.796 153.931C166.783 153.045 166.276 152.158 166.276 151.272C166.276 150.386 166.15 148.36 165.896 145.194C165.77 141.902 165.58 138.293 165.326 134.367C165.073 130.315 164.82 126.263 164.567 122.211C164.44 118.032 164.377 114.613 164.377 111.954C164.377 110.687 164.44 109.041 164.567 107.015C164.693 104.863 165.073 103.026 165.707 101.507C165.833 101.254 166.276 100.747 167.036 99.9874C167.922 99.2275 168.872 98.8477 169.886 98.8477C170.772 98.8477 171.278 99.4176 171.405 100.557C171.532 101.697 171.595 102.963 171.595 104.356V134.367C171.595 135 171.658 135.887 171.785 137.026C172.038 138.166 172.355 138.989 172.735 139.495C174.128 136.457 175.394 132.911 176.534 128.859C177.8 124.68 179.003 120.754 180.143 117.082C181.282 113.283 182.422 110.118 183.562 107.585C184.701 104.926 185.841 103.596 186.981 103.596C188.247 103.596 189.261 103.85 190.02 104.356C190.78 104.863 191.413 105.876 191.92 107.395C192.553 111.067 193.059 114.36 193.439 117.272C193.819 120.058 194.263 122.591 194.769 124.87C195.402 127.149 196.225 129.302 197.238 131.328C198.378 133.227 199.898 135 201.797 136.646C203.57 138.293 205.533 139.495 207.686 140.255C209.965 141.015 211.928 141.395 213.574 141.395C214.334 141.395 215.157 141.268 216.044 141.015C216.93 140.635 217.563 140.445 217.943 140.445C218.45 140.445 218.893 140.889 219.273 141.775C219.779 142.661 220.033 143.231 220.033 143.485ZM241.034 79.4735C241.034 79.7267 240.591 80.233 239.705 80.9929C238.818 81.7528 237.742 82.5758 236.475 83.4622C235.336 84.2218 234.132 84.9185 232.866 85.5515C231.6 86.1847 230.587 86.5014 229.827 86.5014C229.321 86.5014 228.624 86.5014 227.738 86.5014C226.978 86.3744 226.155 86.1213 225.268 85.7415C224.508 85.3618 223.812 84.855 223.179 84.2218C222.546 83.4622 222.229 82.5123 222.229 81.3727C222.229 79.6001 222.862 77.9537 224.128 76.4343C225.395 74.788 227.041 73.965 229.067 73.965C229.447 73.965 230.27 74.155 231.536 74.5348C232.93 74.788 234.323 75.1681 235.715 75.6745C237.109 76.1808 238.311 76.751 239.325 77.3839C240.464 78.0172 241.034 78.7136 241.034 79.4735ZM247.303 150.512C247.303 151.399 246.606 152.158 245.213 152.792C243.947 153.425 242.997 153.741 242.364 153.741C241.098 153.741 239.958 152.918 238.945 151.272C237.932 149.626 237.045 147.726 236.285 145.574C235.526 143.421 234.892 141.395 234.386 139.495C233.879 137.47 233.5 136.076 233.246 135.317C232.866 134.05 232.36 132.531 231.727 130.758C231.094 128.985 230.46 127.276 229.827 125.63C229.321 123.984 228.877 122.527 228.498 121.261C228.117 119.995 227.928 119.298 227.928 119.172C227.928 117.399 228.244 115.753 228.877 114.233C229.637 112.714 230.524 111.954 231.536 111.954C232.676 111.954 233.879 112.84 235.146 114.613C236.412 116.386 237.615 118.665 238.755 121.451C240.021 124.11 241.161 127.086 242.174 130.378C243.187 133.544 244.073 136.583 244.833 139.495C245.593 142.281 246.163 144.751 246.543 146.903C247.049 148.93 247.303 150.132 247.303 150.512ZM321.816 135.317C321.816 136.457 321.056 137.659 319.536 138.926C318.017 140.192 316.244 141.395 314.218 142.535C312.191 143.548 310.102 144.434 307.949 145.194C305.923 145.954 304.403 146.334 303.391 146.334C302.25 146.334 300.984 146.017 299.591 145.384C298.325 144.751 297.059 143.991 295.792 143.104C294.652 142.218 293.639 141.395 292.753 140.635C291.867 139.876 291.297 139.369 291.044 139.116C290.664 139.495 290.094 140.255 289.334 141.395C288.574 142.535 287.624 143.801 286.485 145.194C285.471 146.46 284.332 147.6 283.065 148.613C281.926 149.626 280.723 150.132 279.456 150.132C276.164 150.132 273.315 148.36 270.909 144.814C268.503 141.268 266.477 137.216 264.83 132.658C263.311 128.099 262.107 123.73 261.221 119.551C260.461 115.246 260.081 112.334 260.081 110.814C260.081 109.928 260.525 109.231 261.411 108.725C262.424 108.091 263.184 107.775 263.69 107.775C265.463 107.775 266.666 108.408 267.3 109.674C267.932 110.814 268.249 112.08 268.249 113.473C268.249 114.613 268.566 116.639 269.199 119.551C269.959 122.464 270.845 125.44 271.858 128.479C272.871 131.518 273.948 134.24 275.088 136.646C276.227 138.926 277.24 140.066 278.127 140.066C279.773 140.066 281.166 139.053 282.306 137.026C283.572 134.874 284.585 132.468 285.345 129.808C286.105 127.022 286.675 124.427 287.054 122.021C287.435 119.488 287.624 117.842 287.624 117.082C287.624 116.955 287.624 116.576 287.624 115.943C287.751 115.183 287.878 114.423 288.004 113.663C288.131 112.904 288.194 112.207 288.194 111.574C288.321 110.941 288.384 110.497 288.384 110.244C288.384 109.358 288.194 108.788 287.814 108.535C287.435 108.155 287.244 107.459 287.244 106.445C287.244 105.686 287.624 104.989 288.384 104.356C289.144 103.596 290.79 103.216 293.323 103.216C294.336 103.216 295.096 103.533 295.602 104.166C296.235 104.673 296.679 105.306 296.932 106.065C297.185 106.825 297.312 107.585 297.312 108.345C297.439 108.978 297.502 109.421 297.502 109.674C297.502 109.801 297.439 110.687 297.312 112.334C297.185 113.98 297.059 115.816 296.932 117.842C296.932 119.741 296.869 121.577 296.742 123.35C296.616 125.123 296.552 126.199 296.552 126.579C296.552 126.959 296.742 127.719 297.122 128.859C297.502 129.999 297.945 131.201 298.452 132.468C299.085 133.608 299.781 134.684 300.541 135.697C301.301 136.583 302.124 137.026 303.01 137.026C304.53 137.026 305.923 136.836 307.189 136.457C308.582 135.95 309.849 135.444 310.989 134.937C312.255 134.304 313.395 133.797 314.408 133.417C315.421 132.911 316.37 132.658 317.257 132.658C318.397 132.658 319.41 132.911 320.296 133.417C321.309 133.924 321.816 134.557 321.816 135.317ZM398.964 127.909C398.964 128.922 398.837 129.935 398.583 130.948C398.456 131.961 398.075 132.594 397.444 132.848C394.912 133.987 391.618 135 387.567 135.887C383.515 136.646 379.779 137.723 376.359 139.116C374.208 140.002 371.545 141.205 368.382 142.725C365.216 144.244 361.922 145.764 358.503 147.283C355.084 148.803 351.791 150.132 348.626 151.272C345.46 152.285 342.864 152.792 340.838 152.792C339.191 152.792 337.608 152.158 336.089 150.892C334.569 149.626 333.81 148.296 333.81 146.903C333.81 144.371 334.949 141.332 337.229 137.786C339.635 134.114 342.357 130.378 345.397 126.579C348.562 122.781 351.602 119.172 354.514 115.753C357.553 112.207 359.706 109.358 360.972 107.205C360.846 107.205 360.656 107.142 360.403 107.015C360.149 106.762 359.77 106.635 359.263 106.635C355.337 107.902 351.665 109.041 348.246 110.054C345.333 110.941 342.294 111.764 339.128 112.523C336.089 113.157 333.62 113.473 331.72 113.473C330.454 113.473 329.441 112.904 328.681 111.764C328.048 110.624 327.731 109.358 327.731 107.965C327.731 107.585 327.794 107.205 327.921 106.825C328.174 106.445 328.617 106.255 329.25 106.255C330.897 105.876 333.366 105.242 336.659 104.356C340.078 103.469 343.687 102.583 347.486 101.697C351.285 100.684 354.894 99.8608 358.313 99.2275C361.859 98.4676 364.581 98.0879 366.482 98.0879C367.874 98.0879 369.329 98.6577 370.849 99.7973C372.496 100.81 373.761 102.14 374.65 103.786L346.346 140.066L345.206 142.345C345.206 142.851 345.397 143.104 345.776 143.104C346.789 143.104 348.182 142.661 349.955 141.775C351.855 140.889 354.387 139.622 357.553 137.976C360.846 136.33 365.023 134.367 370.091 132.088C375.281 129.808 381.676 127.339 389.275 124.68C390.541 124.3 391.745 124.11 392.884 124.11C394.785 124.11 396.24 124.554 397.252 125.44C398.394 126.326 398.964 127.149 398.964 127.909Z" fill="white"/>
</svg>
