<svg width="113" height="112" viewBox="0 0 113 112" fill="none" xmlns="http://www.w3.org/2000/svg">
<path d="M4.18555 0.5H52.6777C53.7117 0.496726 54.7365 0.697379 55.6914 1.08984C56.6461 1.48229 57.5128 2.05836 58.2402 2.78516L58.2412 2.78711L110.195 54.2812C110.926 55.0054 111.506 55.8658 111.901 56.8115C112.297 57.7571 112.5 58.7707 112.5 59.7939C112.5 60.8172 112.297 61.8308 111.901 62.7764C111.506 63.722 110.926 64.5815 110.195 65.3057L65.8955 109.214H65.8945C65.1639 109.938 64.2961 110.514 63.3408 110.906C62.3856 111.298 61.3613 111.5 60.3271 111.5C59.2929 111.5 58.2687 111.298 57.3135 110.906C56.3582 110.514 55.4904 109.938 54.7598 109.214L2.80566 57.7197L2.80371 57.7178C2.07053 56.9967 1.48914 56.1384 1.09375 55.1934C0.698394 54.2483 0.496712 53.2348 0.5 52.2119V4.14844C0.5 3.18232 0.887495 2.25483 1.57812 1.57031C2.2689 0.885679 3.20676 0.5 4.18555 0.5ZM29.7959 20.752C28.5581 20.2439 27.1965 20.1112 25.8828 20.3701C24.569 20.6291 23.3612 21.2683 22.4131 22.208C21.4649 23.1478 20.8185 24.3465 20.5566 25.6514C20.2949 26.956 20.4289 28.3084 20.9424 29.5371C21.4559 30.7659 22.3259 31.8156 23.4404 32.5537C24.5549 33.2917 25.8646 33.6855 27.2041 33.6855C29.0002 33.6855 30.7237 32.9779 31.9951 31.7178C33.2666 30.4575 33.9814 28.7471 33.9814 26.9629C33.9814 25.6325 33.5841 24.332 32.8389 23.2266C32.0936 22.121 31.0339 21.2602 29.7959 20.752Z" fill="white" stroke="#064379"/>
</svg>
